<svg version="1" xmlns="http://www.w3.org/2000/svg" width="1365.333" height="1365.333" viewBox="0 0 1024.000000 1024.000000"><path d="M333.4 141.4l-6.9 14.4-13.3-12c-7.4-6.7-13.7-11.6-14.2-11.2-.5.5-3 6.1-5.5 12.4-6.4 15.7-10.7 26.1-14.4 35-1.8 4.1-4.6 11-6.3 15.4-1.7 4.3-3.6 7.9-4.2 8.1-.6.1-6.3 1.2-12.6 2.3-6.3 1.2-17.6 3.3-25 4.7-7.4 1.4-19.6 3.6-27 5-25.6 4.8-23.7 4.2-24.4 7.8-.5 3.2-1.2 8.9-6.1 52.7-1.4 12.4-3.4 30.1-4.5 39.5-1.1 9.3-2.2 19.7-2.5 23-.4 3.3-1.5 13-2.5 21.5s-2.1 18.9-2.5 23.1c-.6 7.5-.6 7.7 2.2 9.8 1.5 1.3 6.5 5.6 11 9.7l8.1 7.4-7.5 18.3c-4.1 10-7.7 19-8 19.9-.3 1-.8 1.8-1.2 1.8-.3 0-5.9-4.3-12.5-9.5-6.5-5.2-12.3-9.5-12.7-9.5-.9 0-15.6 2.6-40.4 7-6 1.1-17.7 3.2-26 4.6-26.4 4.5-41.8 7.4-42.2 7.8-.6.5-2.1 11.9-3.2 24.1-.9 9.9-3.3 31.9-7.1 65.5-4.1 37.2-6.1 55-7.5 68.5-1.4 13.4-2.1 20.4-6.5 59.5-1 9.6-2.6 24.5-3.5 33-.9 8.5-1.8 16-2 16.7-.3 1 9.4 10.1 36.6 34.4 1.7 1.4 1.6 2-1.8 10.5-1.9 4.9-6.3 16.1-9.8 24.9-3.5 8.8-11.1 28-16.9 42.7C4.8 845 0 857.4 0 858c0 1.5 3.2 1.2 15-1 5.8-1.1 15.1-2.8 20.6-3.8l10.2-1.8-1.3 3.5c-.7 2-3.9 9.9-7 17.6C27.1 898 27.7 896 30.1 896c1.1 0 11.3-1.6 22.7-3.6 11.4-1.9 23.6-4 27.2-4.5 3.6-.5 11.2-1.8 17-2.8 5.8-1.1 16.1-2.8 23-4 13.9-2.3 34.9-5.8 57.5-9.7 29.2-5 43.1-7.4 55-9.3 17.5-3 40.7-6.9 51-8.7 5-.9 12.8-2.2 17.5-3 4.7-.7 18-2.9 29.5-4.9 11.6-2 24.8-4.2 29.5-5 4.7-.7 16.6-2.8 26.5-4.5 9.9-1.7 21.8-3.8 26.5-4.5 4.7-.8 18-3 29.5-5 11.6-2 24.8-4.2 29.5-5 4.7-.7 18-3 29.5-5 11.6-2 24.8-4.2 29.5-5 11.1-1.7 24.8-4 38.5-6.5 16.4-2.9 35.3-6.1 41.5-7 3-.5 15-2.5 26.5-4.5 11.6-2 24.8-4.3 29.5-5 4.7-.7 18-3 29.5-5 11.6-2 23.9-4.1 27.5-4.6 3.6-.5 11.2-1.8 17-2.8 5.8-1.1 15.9-2.8 22.5-4 44.7-7.5 60.8-10.2 80.5-13.6 5.2-.9 13.3-2.3 18-3 4.7-.8 18-3 29.5-5 11.6-2 24.8-4.2 29.5-5 4.7-.7 16.6-2.8 26.5-4.5 9.9-1.7 21.8-3.8 26.5-4.5 40.5-6.5 50.2-8.4 49.8-9.5-.2-.4-13.1-12.2-28.8-26-42-37.2-109.9-97.5-137-121.5-13-11.6-27.5-24.4-32.3-28.5-10.3-8.9-9.7-5.8-6.2-37.3 1.3-12.2 3.6-33.5 5-47.2 1.4-13.8 3.5-33.3 4.6-43.5 1.2-10.2 1.9-19.7 1.7-21.2-.2-1.9-6.6-7.8-26.9-24.9-14.6-12.3-27.2-23-28-23.6-1.3-1-3.2-1-9.5.2-11.2 2-62.8 10.9-70.1 12l-4.2.7-.6 5.6c-.4 3.1-1.5 11.3-2.5 18.2-1 6.9-2.4 17-3 22.5-.7 5.5-1.6 10.6-1.9 11.3-.7 1.2-3.2-.9-74.8-63.4L579 334l.6-4.3.6-4.2-9.6-8.5c-5.3-4.6-9.6-8.8-9.6-9.2 0-.4 5.4-6.4 12-13.5 8.5-9.1 12.1-13.7 12.4-15.8 1-6.6 4.6-38.5 5.2-45.5l.6-7.5-6.4-5.5c-3.5-3.1-11.8-10.3-18.6-16l-12.4-10.4-14.1 2.7c-7.8 1.4-20.7 3.8-28.7 5.2-8 1.5-15.4 2.8-16.5 3-1.1.3-5.6 4.9-9.9 10.4-6.8 8.5-8.2 9.8-9.6 8.8-.8-.7-4.9-3.8-9.1-6.9l-7.5-5.7-8.3 1.4-8.4 1.5-6.1-5.2c-3.4-2.9-25.8-22.5-49.9-43.5-24.1-21.1-44.2-38.3-44.6-38.3-.4 0-3.9 6.5-7.7 14.4zm8.2 62.3c-.4 3.8-1.6 14.7-2.7 24.3-1.1 9.6-2.4 22.2-3 28-.5 5.8-2.3 22.2-4 36.5-5.9 51.1-6.9 60-6.9 61.6 0 1.3-2.1 2-9.7 3.3-11.4 2-25.6 4.7-43.3 8.1-6.9 1.4-17.4 3.2-23.5 4-6 .9-19.3 3.2-29.5 5-10.2 1.9-24.3 4.6-31.5 5.9-22.4 4.2-20.5 4.1-20.5.9 0-1.5.7-8.7 1.6-15.8 2.4-20.4 12.2-108.4 14-125 .9-8.2 2-15.3 2.6-15.6.6-.4 7-1.6 14.2-2.8 13.3-2.1 23-3.8 52.6-9.2 9.1-1.7 22.6-4.1 30-5.4 20.8-3.6 35.6-6.3 46.5-8.4 15-2.9 13.8-3.3 13.1 4.6zm207.4 3c0 2.1-1.1 13.6-2.5 25.7l-2.4 21.8-11.3 11.5c-6.2 6.2-11.7 12.3-12.3 13.4-.8 1.8 0 3 5.6 8.3 3.6 3.3 8 7.4 9.8 8.9 3 2.6 3.2 3.3 2.7 7-.3 2.3-1.5 13-2.6 23.7-2.9 27.7-3.7 34.1-4.2 34.6-.3.2-5.2 1.3-10.9 2.3-5.7 1.1-12.6 2.5-15.4 3-2.7.6-10.6 2-17.5 3.1l-12.5 2.1-8-8.4c-4.4-4.5-11.1-11.5-14.9-15.5-6.4-6.8-9.6-8.6-11.1-6.1-.4.6-1.6 8.8-2.7 18.2-1.1 9.5-2.3 17.6-2.8 18.1-1 1-11.3 3.2-24.5 5.2-5.5.8-16.2 2.6-23.9 4-7.6 1.4-14 2.3-14.2 2.1-.2-.2.5-7.5 1.5-16.3 1.1-8.7 2.3-19.1 2.6-22.9.7-7.8 6.2-57.4 10-91 1.4-12.1 2.5-23.4 2.5-25.2 0-2.2.6-3.3 1.8-3.7 1.4-.4 23.8-4.5 53.7-9.9 4.4-.8 8.2-1.3 8.4-1.2.2.2-.7 9.5-1.9 20.6-2.2 19.4-2.2 20.3-.5 21.5 2.7 2 4.4.6 15.5-13.3 5.6-7.1 10.9-13.7 11.8-14.8 1-1.1 5.2-6.4 9.4-11.7 4.2-5.3 8.5-9.9 9.5-10.2 4.5-1.3 44.8-8.3 48.6-8.5 2.5-.1 2.7.2 2.7 3.6zm218.6 162c-.4 4.9-1.3 14-2.1 20.3-2.6 21.3-17.5 156-17.5 158.4 0 .8-1 1.8-2.2 2-1.3.2-5.9 1.1-10.3 2-4.4.8-13.8 2.5-21 3.6-7.1 1.2-18.4 3.1-25 4.4-6.6 1.3-12.2 2.2-12.4 2-.2-.2.1-4.8.8-10.1 1.9-15.9 12.8-114.7 16.6-150.8 1.4-13.2 3-24.9 3.4-26.1.8-1.8 3.7-2.5 24.7-6.2 37.4-6.6 44.9-7.9 45.3-8.1.2 0 0 3.8-.3 8.6zM620 400.2c0 1.3-1.1 11.5-2.5 22.8-1.3 11.3-2.9 25-3.4 30.5-3.8 37.6-5.4 52-7.1 66.5-1.1 9.1-3.1 26.6-4.5 39-1.4 12.4-2.9 25.9-3.5 30-.5 4.1-1.7 15.1-2.5 24.5-.9 9.3-2.3 22.6-3.3 29.5l-1.7 12.5-7 1.2c-3.8.7-17.1 3.1-29.5 5.3-12.4 2.2-26.5 4.7-31.5 5.6-4.9.8-12.8 2.2-17.5 2.9-4.7.8-17.3 3-28 5s-24.7 4.6-31 5.6c-6.3 1.1-15.1 2.6-19.5 3.4-9 1.5-36.9 6.6-49 8.9-17.3 3.3-40.5 6.9-41 6.4-.5-.4 6.3-63.6 16.5-154.3 1.6-14.3 4.8-43.2 7.2-64.2l4.2-38.2 12-2.1c6.7-1.2 18.2-3.3 25.6-4.6 7.4-1.3 18.2-3.3 24-4.4 5.8-1 20-3.5 31.5-5.5 20.3-3.5 25-4.3 47.5-8.5 5.8-1.1 18.4-3.3 28-4.9 9.6-1.6 26.5-4.6 37.5-6.6 54.5-10 48.5-9.2 48.5-6.3zm-329.4 16c-1.4 13.4-2.6 24.4-3.1 27.8-1.2 9-3.5 33.3-3.5 36.7 0 3.5-1.4 5.1-28 31.8-15.4 15.5-28 28.6-28 29.2 0 .6 1.9 2.7 4.3 4.8 2.3 2.1 5.6 4.9 7.2 6.4 1.7 1.5 9.6 8.5 17.8 15.6 11.9 10.4 14.7 13.3 14.7 15.4 0 4.6-8.8 83.3-9.3 83.7-.1.1-5.6 1.1-12.2 2.2-26.5 4.6-36.6 6.4-49 8.7-7.1 1.3-17.7 3.1-23.4 4-5.7.9-10.9 1.9-11.6 2.2-.7.2-6.5-5.4-13.2-12.9-14.6-16.4-16.6-18.6-19.3-21.8-7.5-8.9-15.4-17-16.5-17-.7 0-1.7.6-2.3 1.2-.5.7-2.5 14.6-4.3 30.8-1.7 16.2-3.2 29.6-3.3 29.6-.1.1-2 .4-4.4.8-8.6 1.1-46.4 7.9-59.7 10.6-2.8.6-6.4 1.2-8 1.5-1.7.2-5.5.8-8.5 1.4-9.7 1.7-18.4 3.1-18.6 2.8 0-.1.3-3.6.7-7.7.5-4.1 1.8-16.1 3-26.5 1.1-10.5 2.7-24.9 3.5-32 1.5-13.5 5.5-49.4 7.9-72 2.1-19.6 4.2-38.6 7-63.5 1.4-12.4 3-26.6 3.5-31.5 1.8-16.3 2.6-22.5 3.2-23.1.4-.3 4.6-1.2 9.5-1.9 4.8-.7 18.7-3.2 30.8-5.4 37.8-7.1 48.8-9.1 53.9-9.7l4.9-.7-.6 4.9c-4.6 38.1-5.7 49.1-6 55.9l-.2 8h2.6c2.2 0 4.3-2 11.9-11.5 5.1-6.3 9.5-11.7 9.9-12 .4-.3 1.8-2.1 3.1-4s4.9-6.5 7.9-10.1c3.1-3.7 11.9-14.5 19.5-24.2s14.6-17.9 15.5-18.2c.9-.4 4.1-1.1 7.1-1.5 3-.5 13.2-2.3 22.5-4 9.4-1.8 26.9-4.9 39-7 12.1-2.1 22.2-3.8 22.4-3.9.2-.1.1 2.7-.3 6.1zM744 583.7c0 .5-1.1 10.2-2.5 21.8-1.4 11.5-2.5 21.5-2.5 22.1 0 .6-2.4 1.4-5.4 1.7-5.6.6-10.2 1.4-43.6 7.6-11.3 2.2-20.8 3.6-21.2 3.2-1.1-1 4-43.4 5.3-44.2.6-.3 6.6-1.6 13.3-2.8 13.6-2.5 35.3-6.4 46.6-8.5 9.4-1.7 10-1.8 10-.9zm-118.4 77.5c-.3 2.9-.8 9.4-1.2 14.4l-.6 9.2-13.8 2.6c-7.6 1.4-14 2.6-14.3 2.6-.6 0-.3-3.5 1.3-18.9.6-5.2 1.3-9.7 1.6-10 .4-.5 22.5-4.6 26.3-5 1-.1 1.2 1.1.7 5.1zm-327.9 11c-.4 2.4-1.1 8.8-1.8 14.3-.6 5.5-1.4 10.3-1.8 10.7-.8.9-26.1 5.1-26.8 4.4-.5-.5 1.2-20.3 2.3-25.8.5-2.4 1.1-2.7 7.7-3.9 4-.6 9.9-1.8 13.2-2.4 3.3-.7 6.4-1.3 6.9-1.4.4-.1.6 1.8.3 4.1z"/><path d="M259 260.5c-9.1 1.8-19.3 3.6-22.7 4-3.4.4-6.7 1.3-7.4 2.1-1.1 1.3-1.3 2.9-4.9 32.8-2.1 18.3-2 19.6 2.9 19.6 1.4 0 10.9-1.5 21.1-3.4 10.2-1.9 20.4-3.7 22.8-4.1 2.4-.4 4.6-1.4 5.1-2.3.5-1 2.1-12.5 3.6-25.7 2.5-22.8 2.6-24 .9-25.2-2.3-1.6-1.8-1.7-21.4 2.2zM510.5 499.6c-.6.2-10 2-21 3.9-40.4 6.9-47.8 8.4-48.7 9.3-1.1 1.1-8.7 62.5-8.8 70.3 0 6 1.1 6.4 12 4.5 18.3-3.3 31.1-5.6 46-8.2 8.5-1.4 16.4-3.2 17.6-3.9 1.6-1.1 2.2-2.7 2.7-7.7.3-3.5 2-18.3 3.7-33 3.5-31 3.6-34.3 1.4-35.2-1.7-.7-3.4-.7-4.9 0z"/></svg>